<?xml version="1.0" encoding="UTF-8"?>
<svg xmlns="http://www.w3.org/2000/svg" width="210" height="60" viewBox="0 0 210 60" fill="none">
  <rect x="1.14563" y="0.880006" width="207.709" height="58.0487" fill="#FFCD11" stroke="white" stroke-width="1.70874"></rect>
  <path d="M149.332 1.73438H207.999V58.0733H149.332V1.73438Z" fill="#1A1811"></path>
  <path d="M169.59 39.0448C170.56 38.1641 170.727 37.0753 170.727 36.0973V31.9924H165.453V37.5615C165.453 38.3608 164.86 39.0061 164.128 39.0061C163.396 39.0061 162.85 38.3608 162.85 37.5615V21.7809C162.85 20.9845 163.395 20.3381 164.128 20.3381C164.86 20.3381 165.453 20.9845 165.453 21.7809V27.3883H170.719V21.5713C170.719 18.3578 168.787 15.7132 164.083 15.707C159.252 15.707 157.426 18.364 157.426 21.5775V38.0561C157.426 41.2404 159.752 43.65 162.727 43.65H164.36L169.59 39.0448Z" fill="white"></path>
  <path d="M190.374 39.6915V21.5817H186.734V16.248H199.905V21.5817H196.248V43.6177H194.687L190.374 39.6915Z" fill="white"></path>
  <path d="M192.734 43.6579L179.908 31.9727L166.617 43.6579H192.734Z" fill="#FFCC00"></path>
  <path d="M178.495 28.8234L179.915 20.9334L181.327 28.8234H178.495ZM183.572 16.2754H176.226L171.945 37.1558L179.917 30.16L188.226 37.7319L183.572 16.2754Z" fill="white"></path>
  <path fill-rule="evenodd" clip-rule="evenodd" d="M50.7414 25.0183C50.6161 25.0527 50.5266 25.0527 50.4371 25.0527H44.4764H44.4227C44.19 25.0527 44.19 25.0527 44.1721 24.829C44.0289 23.6762 43.3845 22.8331 42.4179 22.1964C41.6483 21.6975 40.7891 21.4049 39.8762 21.2845C38.4263 21.078 37.0122 21.2329 35.6876 21.8523C34.542 22.3857 33.5754 23.16 32.752 24.1064C31.5169 25.5345 30.6935 27.1691 30.2281 28.9758C29.9239 30.1114 29.7807 31.2642 29.8523 32.4342C29.9418 33.828 30.2818 35.1357 31.0873 36.3057C31.6601 37.1316 32.394 37.7682 33.3606 38.1296C33.4859 38.1812 33.5217 38.2328 33.5038 38.3705C33.3964 39.0931 33.3069 39.8158 33.2174 40.5557C33.1548 40.9944 33.0966 41.4332 33.0384 41.8719C32.9803 42.3107 32.9221 42.7495 32.8594 43.1882C32.8236 43.4119 32.8236 43.4119 32.5909 43.3947C30.4966 43.1538 28.653 42.4312 27.1315 41.003C26.0396 39.9706 25.2878 38.7318 24.7866 37.3725C24.3749 36.2541 24.1243 35.1012 23.999 33.914C23.8916 32.8128 23.8737 31.7288 23.9453 30.6276C24.178 27.1003 25.3057 23.8999 27.5969 21.1124C29.6196 18.6519 32.1792 16.9829 35.3296 16.1742C37.0122 15.744 38.7127 15.6408 40.449 15.744C41.6662 15.8301 42.8475 16.0193 44.011 16.3979C45.98 17.0345 47.6089 18.1013 48.8082 19.7531C49.6495 20.8888 50.1686 22.1448 50.4908 23.5041C50.6161 24.0031 50.7056 24.5193 50.7593 25.0527L50.7414 25.0183ZM58.832 42.8047C58.9036 42.3058 58.9752 41.824 59.0468 41.3423L59.0468 41.3421C59.2258 40.1893 59.4048 39.0365 59.5659 37.8837C59.6549 37.302 59.7439 36.7246 59.8329 36.1472L59.8344 36.1373C59.9239 35.5566 60.0134 34.9758 60.1029 34.3908C60.1387 34.1155 60.1745 33.8402 60.1029 33.5821C59.9418 32.9282 59.3511 32.4464 58.653 32.3948C57.4896 32.3088 56.4335 33.1347 56.2724 34.2359C56.1381 35.122 56.0083 36.0039 55.8786 36.8857L55.8785 36.8859C55.7488 37.7676 55.619 38.6494 55.4848 39.5355C55.4132 40.0345 55.3371 40.5335 55.261 41.0325L55.2609 41.0331C55.1849 41.5319 55.1088 42.0306 55.0373 42.5294C55.0373 42.5552 55.0283 42.581 55.0194 42.6068C55.0104 42.6326 55.0015 42.6584 55.0015 42.6842C55.0015 42.7875 54.9299 42.8219 54.8404 42.8047H54.6793H50.1864H50.079H50.079C49.9704 42.8047 49.9167 42.8047 49.8925 42.778C49.8688 42.7519 49.8733 42.7003 49.8821 42.5982C50.1685 40.6539 50.4549 38.7096 50.7592 36.7824C50.8756 36.0168 50.9919 35.2469 51.1082 34.4769L51.1093 34.4702C51.2253 33.7024 51.3413 32.9346 51.4573 32.1711C51.5647 31.4745 51.6676 30.7736 51.7704 30.0727L51.7706 30.072C51.8735 29.3708 51.9764 28.6696 52.0838 27.9728C52.1017 27.8351 52.1375 27.7663 52.2986 27.7663H57.1495C57.1495 27.7663 57.1853 27.7663 57.239 27.7835C57.1977 28.0853 57.1525 28.3907 57.1071 28.6981L57.107 28.6986L57.107 28.6987C57.0541 29.0572 57.0007 29.4183 56.9526 29.7794C57.0372 29.7794 57.0663 29.726 57.0923 29.6781C57.0993 29.6652 57.1061 29.6527 57.1137 29.6418C58.1877 28.4373 59.5659 27.7663 61.1948 27.5426C62.0898 27.4222 62.9669 27.491 63.8261 27.7835C64.7748 28.1104 65.5445 28.661 66.0457 29.5213L66.0815 29.5558C66.143 29.5558 66.1707 29.5151 66.1994 29.4729C66.2125 29.4538 66.2258 29.4343 66.2426 29.4181C67.3166 28.3513 68.6233 27.7319 70.1627 27.5254C71.165 27.405 72.1495 27.5082 73.0803 27.8867C73.8858 28.2309 74.5302 28.7299 74.9777 29.4869C74.9777 29.4941 74.9839 29.5012 74.9911 29.5095C75.0012 29.5213 75.0135 29.5356 75.0135 29.5558C75.0797 29.5558 75.1067 29.5181 75.1308 29.4846C75.1393 29.4728 75.1474 29.4615 75.1567 29.4525C76.2307 28.3513 77.5553 27.7319 79.1126 27.5426C79.8465 27.4566 80.5804 27.491 81.2964 27.6803C82.424 27.9728 83.3548 28.5578 83.9455 29.573C84.0234 29.573 84.0636 29.5187 84.1003 29.4692C84.1143 29.4504 84.1277 29.4323 84.1424 29.4181C85.2164 28.3513 86.5231 27.7491 88.0446 27.5426C89.1723 27.405 90.2463 27.5426 91.2666 28.0416C92.1437 28.4718 92.806 29.1256 93.1282 30.0547C93.2893 30.5021 93.3251 30.9667 93.2535 31.4485C93.1259 32.2146 93.0126 32.9944 92.9008 33.7635L92.9008 33.7636L92.8597 34.0466C92.8544 34.0817 92.8568 34.1183 92.8593 34.1559C92.8597 34.1627 92.8602 34.1695 92.8606 34.1763C92.8609 34.1815 92.8612 34.1868 92.8614 34.192C92.9116 34.0516 92.9573 33.9201 93.0029 33.7885C93.7368 31.6894 94.9897 29.9687 96.905 28.7299C98.2117 27.8695 99.6616 27.3705 101.237 27.2329C102.705 27.1125 104.137 27.2329 105.533 27.7147C106.553 28.076 107.412 28.6438 108.039 29.5041C108.504 30.1408 108.773 30.8634 108.898 31.6377C108.987 32.1539 109.023 32.6701 109.005 33.2379C109.091 33.1692 109.12 33.0895 109.146 33.0163C109.149 33.0071 109.153 32.998 109.156 32.989C109.159 32.98 109.163 32.9713 109.166 32.9626C109.865 31.328 110.921 29.9687 112.424 28.9363C113.695 28.0416 115.127 27.5082 116.684 27.3017C117.866 27.1469 119.029 27.1469 120.193 27.4222C122.752 28.0072 124.31 29.5386 124.865 31.9991C125.169 33.3584 125.079 34.7005 124.757 36.0426C124.363 37.66 123.665 39.1397 122.538 40.413C121.034 42.1164 119.119 43.1488 116.828 43.5102C115.413 43.7338 113.999 43.6994 112.621 43.3037C110.312 42.6326 108.934 41.1357 108.468 38.8644L108.456 38.7989L108.456 38.7988C108.407 38.5305 108.36 38.2746 108.343 38.0041C108.343 37.9181 108.343 37.832 108.289 37.7288L108.289 37.7291C108.2 37.9527 108.11 38.1763 108.003 38.3998C106.732 41.1701 104.548 42.9079 101.434 43.4757C99.7153 43.7854 97.979 43.7166 96.3322 43.1144C94.238 42.3745 93.0029 40.9292 92.5733 38.83C92.5017 38.4343 92.4659 38.0385 92.4301 37.6428C92.4301 37.5567 92.4301 37.4707 92.3764 37.3847C92.3585 37.5137 92.3361 37.6428 92.3137 37.7718C92.2913 37.9009 92.269 38.0299 92.2511 38.159C92.1347 38.9074 92.0228 39.6559 91.911 40.4044C91.7991 41.1529 91.6872 41.9014 91.5709 42.6498C91.553 42.8219 91.5351 42.8219 91.3203 42.8219H87.973H86.5052C86.3083 42.8219 86.3083 42.8219 86.3262 42.6326C86.393 42.2155 86.4558 41.7984 86.5185 41.383L86.5186 41.3823C86.5902 40.9069 86.6615 40.4338 86.7379 39.9656C86.9169 38.8128 87.0959 37.66 87.257 36.5071L87.2886 36.2893L87.2886 36.2892C87.3856 35.6192 87.4841 34.9394 87.5971 34.2875C87.7761 33.2723 86.9706 32.2055 85.5565 32.4636C84.572 32.6357 83.856 33.3928 83.7128 34.3391C83.5876 35.1902 83.4624 36.037 83.3372 36.8838L83.3371 36.8849C83.2117 37.7326 83.0864 38.5803 82.961 39.4322C82.8805 39.957 82.8044 40.4818 82.7283 41.0066C82.6523 41.5314 82.5762 42.0562 82.4957 42.581C82.4957 42.6326 82.4777 42.6842 82.4598 42.7359C82.4598 42.8219 82.4062 42.8563 82.3167 42.8563H82.2093H77.3226H77.1078L77.2689 41.7207C77.4837 40.327 77.6985 38.9332 77.9133 37.5567L77.9133 37.5567L77.9133 37.5566C78.0744 36.5243 78.2355 35.4919 78.3787 34.4596C78.4145 34.1843 78.4503 33.8918 78.3787 33.6165C78.2176 32.9626 77.6269 32.4981 76.9109 32.4464C75.7474 32.3776 74.7092 33.2035 74.5302 34.3047L73.7784 39.2602C73.5994 40.3958 73.4383 41.5142 73.2772 42.6498C73.2414 42.8735 73.2414 42.8735 73.0087 42.8735H68.2295C68.0147 42.8735 67.9968 42.8735 68.0326 42.6498L68.0327 42.6492C68.319 40.7911 68.6054 38.933 68.8918 37.0578C68.9634 36.593 69.035 36.124 69.1066 35.655L69.1067 35.6544C69.1783 35.1859 69.2498 34.7173 69.3214 34.2531C69.4646 33.2723 68.7486 32.4636 67.7104 32.4464C66.5648 32.4292 65.5982 33.2379 65.4371 34.3563C65.3118 35.2081 65.182 36.0598 65.0522 36.9115C64.9225 37.7632 64.7927 38.6149 64.6674 39.4666C64.5868 39.9914 64.5108 40.5162 64.4347 41.041C64.3586 41.5658 64.2825 42.0906 64.202 42.6154C64.1662 42.8563 64.1662 42.8563 63.9514 42.8563H58.9931H58.8499L58.832 42.8047ZM108.844 33.5649H108.558H104.262H104.065C103.975 33.5649 103.958 33.5304 103.958 33.4444V32.9454C103.886 32.0507 103.403 31.3968 102.561 31.156C101.416 30.829 100.378 31.0355 99.5005 31.827C99.1425 32.1539 98.874 32.5325 98.6413 32.9626C97.9253 34.3391 97.6389 35.8017 97.621 37.3158C97.621 37.7116 97.6747 38.0901 97.8179 38.4515C98.0506 39.0709 98.4981 39.4666 99.1425 39.6559C99.4289 39.7419 99.7332 39.7764 100.038 39.7764C101.076 39.8108 101.917 39.4322 102.561 38.6407C102.866 38.2794 103.063 37.8665 103.242 37.4363C103.313 37.2413 103.462 37.1438 103.689 37.1438H108.021C108.165 37.1438 108.228 37.1438 108.254 37.1129C108.274 37.0893 108.274 37.0478 108.272 36.9746C108.272 36.9534 108.271 36.9297 108.271 36.9029C108.325 35.8533 108.486 34.8381 108.808 33.823C108.814 33.7956 108.823 33.77 108.833 33.744C108.853 33.688 108.874 33.6298 108.862 33.5476L108.844 33.5649ZM113.427 36.4898C113.427 37.3756 113.482 38.0078 113.767 38.5891C114.071 39.2258 114.572 39.6387 115.306 39.7592C116.04 39.8796 116.738 39.7764 117.382 39.4322C118.009 39.1053 118.456 38.6063 118.797 38.0041C119.602 36.5416 119.96 34.9758 119.781 33.324C119.727 32.8594 119.602 32.412 119.334 31.9991C119.047 31.5345 118.618 31.2076 118.063 31.0871C117.275 30.9151 116.523 31.0183 115.825 31.4141C115.234 31.741 114.805 32.2228 114.483 32.7906C113.749 34.0122 113.48 35.3542 113.427 36.4898ZM42.0233 41.1915C42.4529 40.813 42.8646 40.4172 43.2763 39.9871H43.3121C43.3549 40.097 43.3522 40.174 43.3493 40.2532C43.3486 40.2731 43.3478 40.2932 43.3478 40.314V42.6196C43.3478 42.713 43.3478 42.7603 43.3715 42.7843C43.3958 42.8089 43.445 42.8089 43.5447 42.8089H48.3777C48.5893 42.8089 48.5925 42.7922 48.6267 42.6108L48.6283 42.6024C48.723 42.1172 48.8037 41.6185 48.8828 41.1301C48.8935 41.0643 48.9041 40.9987 48.9147 40.9334C49.107 39.7502 49.3045 38.5719 49.5017 37.3959C49.6714 36.383 49.8409 35.3718 50.0066 34.3606C50.1766 33.311 50.3512 32.2657 50.5257 31.2204C50.7002 30.1751 50.8747 29.1298 51.0448 28.0802C51.0519 28.0389 51.0598 27.9976 51.0677 27.9563C51.0992 27.7912 51.1307 27.626 51.1164 27.4608C50.9911 27.4436 50.9016 27.4436 50.7942 27.4436H50.7942H37.0829H36.9218C36.8144 27.4264 36.7428 27.4608 36.7428 27.5813L36.6354 28.7169L36.3669 31.7624L36.3641 31.8085C36.3471 32.0873 36.3292 32.38 36.2953 32.6571C36.2774 32.7776 36.3311 32.812 36.4564 32.812H36.6533H41.1283C41.1557 32.812 41.182 32.8109 41.2077 32.8098C41.2826 32.8066 41.3526 32.8036 41.4326 32.8292C41.4326 32.9378 41.3991 33.025 41.3675 33.1076C41.359 33.1297 41.3506 33.1515 41.3431 33.1733C40.8956 34.4122 40.1617 35.4618 39.1772 36.3393C38.0495 37.3373 36.7786 38.0427 35.2571 38.2836C35.0781 38.3181 35.0781 38.4041 35.0781 38.5245V43.2219C35.0781 43.4456 35.096 43.4456 35.3108 43.4456C35.8667 43.4456 36.4058 43.3969 36.9607 43.3469L37.0113 43.3423C38.9266 43.1703 40.5913 42.4476 42.0233 41.1915Z" fill="black"></path>
  <path d="M203.257 18.3158H202.891L202.638 17.7305H202.458V18.3158H202.129V16.6973H202.741C202.892 16.6973 203.013 16.7451 203.106 16.8406C203.199 16.9362 203.245 17.0591 203.245 17.2091C203.245 17.3371 203.217 17.4402 203.16 17.5184C203.103 17.5958 203.035 17.6472 202.955 17.6724L203.257 18.3158ZM202.694 17.4449C202.758 17.4449 202.81 17.424 202.849 17.3821C202.889 17.3395 202.908 17.2834 202.908 17.2139C202.908 17.1444 202.889 17.0887 202.849 17.0468C202.81 17.0049 202.758 16.984 202.694 16.984H202.458V17.4449H202.694Z" fill="white"></path>
  <path fill-rule="evenodd" clip-rule="evenodd" d="M202.674 16.0235C201.844 16.0235 201.172 16.6875 201.172 17.5065C201.172 18.3255 201.844 18.9895 202.674 18.9895C203.504 18.9895 204.177 18.3255 204.177 17.5065C204.177 16.6875 203.504 16.0235 202.674 16.0235ZM200.898 17.5065C200.898 16.5386 201.694 15.7539 202.674 15.7539C203.655 15.7539 204.45 16.5386 204.45 17.5065C204.45 18.4744 203.655 19.2591 202.674 19.2591C201.694 19.2591 200.898 18.4744 200.898 17.5065Z" fill="white"></path>
</svg>
